<svg height="472pt" viewBox="0 -37 472 472" width="472pt" xmlns="http://www.w3.org/2000/svg"><path d="m464 105.269531v252.191407c0 18.21875-14.078125 32.988281-31.449219 32.988281h-393.101562c-17.371094 0-31.449219-14.769531-31.449219-32.988281v-252.191407zm-99.359375 220.390625v-164.96875h-89.601563c-2.601562-.003906-5.183593.449219-7.628906 1.339844l-23.78125 8.648438c-4.929687 1.785156-10.328125 1.785156-15.257812 0l-23.78125-8.648438c-2.445313-.890625-5.027344-1.34375-7.628906-1.339844h-89.601563v164.96875h89.601563c2.601562.003906 5.183593.457032 7.628906 1.351563l23.78125 8.648437c4.929687 1.785156 10.328125 1.785156 15.257812 0l23.78125-8.648437c2.445313-.894531 5.027344-1.347657 7.628906-1.351563zm0 0" fill="#00efd1"/><path d="m464 40.539062v64.730469h-456v-64.730469c0-18.21875 14.078125-32.988281 31.449219-32.988281h393.101562c17.371094 0 31.449219 14.769531 31.449219 32.988281zm-251.589844 16.5c0-12.148437-9.378906-22-20.960937-22-11.578125 0-20.96875 9.851563-20.96875 22 0 12.152344 9.390625 21.992188 20.96875 21.992188 11.582031 0 20.960937-9.851562 20.960937-21.992188zm-68.128906 0c0-12.148437-9.390625-22-20.972656-22-11.578125 0-20.96875 9.851563-20.96875 22 0 12.152344 9.390625 21.992188 20.96875 21.992188 11.582031 0 20.972656-9.851562 20.972656-21.992188zm-68.140625 0c0-12.148437-9.390625-22-20.96875-22-11.582031 0-20.960937 9.851563-20.960937 22 0 12.152344 9.378906 21.992188 20.960937 21.992188 11.578125 0 20.96875-9.851562 20.96875-21.992188zm0 0" fill="#00acea"/><path d="m364.640625 160.691406v164.96875h-89.601563c-2.601562.003906-5.183593.457032-7.628906 1.351563l-23.78125 8.648437c-2.445312.890625-5.027344 1.34375-7.628906 1.339844v-164.980469c2.601562.003907 5.183594-.449219 7.628906-1.339843l23.78125-8.648438c2.445313-.890625 5.027344-1.34375 7.628906-1.339844zm0 0" fill="#fedb41"/><path d="m236 336.761719v.238281c-2.601562.003906-5.183594-.449219-7.628906-1.339844l-23.78125-8.648437c-2.445313-.894531-5.027344-1.347657-7.628906-1.351563h-89.601563v-164.96875h89.601563c2.601562-.003906 5.183593.449219 7.628906 1.339844l23.78125 8.648438c2.445312.890624 5.027344 1.34375 7.628906 1.339843zm0 0" fill="#00acea"/><path d="m191.449219 35.039062c11.582031 0 20.960937 9.851563 20.960937 22 0 12.152344-9.378906 21.992188-20.960937 21.992188-11.578125 0-20.96875-9.851562-20.96875-21.992188 0-12.140624 9.390625-22 20.96875-22zm0 0" fill="#00efd1"/><path d="m123.308594 35.039062c11.582031 0 20.972656 9.851563 20.972656 22 0 12.152344-9.390625 21.992188-20.972656 21.992188-11.578125 0-20.96875-9.851562-20.96875-21.992188 0-12.140624 9.390625-22 20.96875-22zm0 0" fill="#00efd1"/><path d="m55.171875 35.039062c11.578125 0 20.96875 9.851563 20.96875 22 0 12.152344-9.390625 21.992188-20.96875 21.992188-11.582031 0-20.960937-9.851562-20.960937-21.992188 0-12.140624 9.378906-22 20.960937-22zm0 0" fill="#00efd1"/><g fill="#083863"><path d="m432.550781 0h-393.101562c-21.75 0-39.449219 17.9375-39.449219 40.539062v316.921876c0 22.601562 17.699219 40.539062 39.449219 40.539062h393.101562c21.75 0 39.449219-17.9375 39.449219-40.539062v-316.921876c0-22.601562-17.699219-40.539062-39.449219-40.539062zm23.449219 357.460938c0 13.777343-10.519531 24.539062-23.449219 24.539062h-393.101562c-12.929688 0-23.449219-10.761719-23.449219-24.539062v-244.460938h440zm0-260.460938h-440v-56.460938c0-13.777343 10.519531-24.539062 23.449219-24.539062h393.101562c12.929688 0 23.449219 10.761719 23.449219 24.539062zm0 0"/><path d="m123.308594 27.039062c-15.972656 0-28.96875 13.457032-28.96875 30 0 16.542969 13 29.992188 28.96875 29.992188 15.972656 0 28.972656-13.453125 28.972656-29.992188 0-16.535156-12.996094-30-28.972656-30zm0 43.992188c-7.152344 0-12.96875-6.277344-12.96875-13.992188 0-7.714843 5.816406-14 12.96875-14s12.972656 6.28125 12.972656 14c0 7.722657-5.820312 13.992188-12.972656 13.992188zm0 0"/><path d="m191.449219 27.039062c-15.972657 0-28.96875 13.457032-28.96875 30 0 16.542969 13 29.992188 28.96875 29.992188 15.972656 0 28.960937-13.453125 28.960937-29.992188 0-16.535156-12.992187-30-28.960937-30zm0 43.992188c-7.148438 0-12.96875-6.277344-12.96875-13.992188 0-7.714843 5.820312-14 12.96875-14 7.152343 0 12.960937 6.28125 12.960937 14 0 7.722657-5.808594 13.992188-12.960937 13.992188zm0 0"/><path d="m55.171875 27.039062c-15.972656 0-28.960937 13.457032-28.960937 30 0 16.542969 12.988281 29.992188 28.960937 29.992188 15.96875 0 28.96875-13.453125 28.96875-29.992188 0-16.535156-12.996094-30-28.96875-30zm0 43.992188c-7.148437 0-12.960937-6.277344-12.960937-13.992188 0-7.714843 5.8125-14 12.960937-14 7.144531 0 12.96875 6.28125 12.96875 14 0 7.722657-5.820313 13.992188-12.96875 13.992188zm0 0"/><path d="m107.359375 334h89.601563c1.660156-.054688 3.316406.179688 4.894531.699219l23.777343 8.566406c6.707032 2.394531 14.039063 2.371094 20.730469-.066406l23.777344-8.488281c1.578125-.523438 3.238281-.761719 4.898437-.707032h89.601563c4.554687-.132812 8.21875-3.789062 8.359375-8.34375v-164.96875c0-4.421875-3.941406-7.691406-8.359375-7.691406h-89.601563c-3.523437-.054688-7.03125.507812-10.363281 1.667969l-23.785156 8.574219c-3.167969 1.125-6.628906 1.109374-9.785156-.042969l-23.785157-8.515625c-3.328124-1.160156-6.835937-1.730469-10.359374-1.683594h-89.601563c-4.417969 0-8.359375 3.269531-8.359375 7.691406v164.96875c.140625 4.554688 3.804688 8.210938 8.359375 8.339844zm136.640625-155.058594c.800781-.214844 1.585938-.460937 2.363281-.742187l23.777344-8.496094c1.578125-.519531 3.238281-.753906 4.898437-.699219h81.960938v148.996094h-81.960938c-3.523437-.058594-7.03125.503906-10.363281 1.660156l-20.675781 7.351563zm-129-9.941406h81.960938c1.660156-.054688 3.316406.179688 4.894531.699219l23.777343 8.570312c.777344.285157 1.566407.453125 2.367188.667969v148.074219l-20.679688-7.351563c-3.328124-1.15625-6.835937-1.71875-10.359374-1.660156h-81.960938zm0 0"/><path d="m270.789062 207h28.570313c4.417969 0 8-3.582031 8-8s-3.582031-8-8-8h-28.570313c-4.417968 0-8 3.582031-8 8s3.582032 8 8 8zm0 0"/><path d="m270.789062 236h62.25c4.417969 0 8-3.582031 8-8s-3.582031-8-8-8h-62.25c-4.417968 0-8 3.582031-8 8s3.582032 8 8 8zm0 0"/><path d="m270.789062 266h62.25c4.417969 0 8-3.582031 8-8s-3.582031-8-8-8h-62.25c-4.417968 0-8 3.582031-8 8s3.582032 8 8 8zm0 0"/><path d="m270.789062 295h62.25c4.417969 0 8-3.582031 8-8s-3.582031-8-8-8h-62.25c-4.417968 0-8 3.582031-8 8s3.582032 8 8 8zm0 0"/></g></svg>